<?xml version="1.0" encoding="UTF-8"?>
<svg id="Layer_1" data-name="Layer 1" xmlns="http://www.w3.org/2000/svg" viewBox="0 0 76 76.6">
  <defs>
    <style>
      .cls-1, .cls-2 {
        fill: #172149;
      }

      .cls-3 {
        fill: #13204a;
      }

      .cls-3, .cls-2 {
        stroke: #fff;
        stroke-miterlimit: 10;
      }
    </style>
  </defs>
  <path class="cls-1" d="m44.1,32.9c-3.8-.2-7,2.9-7,6.7,0,2.5,1.4,4.7,3.4,5.8.4.2.7.7.7,1.2h0c0,.4-.3.7-.7.7h-11.1v28.9h14.1c8.1,0,14.7-6.6,14.7-14.7v-14.2h-11.1c-.4,0-.7-.3-.7-.7h0c0-.5.3-.9.7-1.2,2.1-1.2,3.5-3.4,3.4-6.1-.1-3.4-2.9-6.3-6.4-6.4Z"/>
  <path class="cls-2" d="m43.8,62c.2-3.8-2.9-7-6.7-7-2.5,0-4.7,1.4-5.8,3.4-.2.4-.7.7-1.2.7h0c-.4,0-.7-.3-.7-.7v-11.1H.5v14.1c0,8.1,6.6,14.7,14.7,14.7h14.1v-11.1c0-.4.3-.7.7-.7h0c.5,0,.9.3,1.2.7,1.2,2.1,3.4,3.5,6.1,3.4,3.5-.1,6.3-2.9,6.5-6.4Z"/>
  <path class="cls-3" d="m14.9,32.5c.2-3.5,3-6.3,6.5-6.4,2.6-.1,4.9,1.3,6.1,3.4.2.4.7.7,1.2.7h0c.4,0,.7-.3.7-.7v-11.1h-14.2c-8.1,0-14.7,6.6-14.7,14.8v14.1h11.2c.4,0,.7.3.7.7h0c0,.5-.3.9-.7,1.2-2.1,1.2-3.5,3.4-3.4,6.1.1,3.5,2.9,6.3,6.4,6.5,3.8.2,7-2.9,7-6.7,0-2.5-1.4-4.7-3.4-5.8-.5-.4-.8-.8-.8-1.3h0c0-.4.3-.7.7-.7h11.2v-11.2c0-.4-.3-.7-.7-.7h0c-.5,0-.9.3-1.2.7-1.1,2-3.3,3.4-5.8,3.4-3.9,0-6.9-3.1-6.8-7Z"/>
  <path class="cls-2" d="m61.4,14.9c3.5.2,6.3,3,6.4,6.5.1,2.6-1.3,4.9-3.4,6.1-.4.2-.7.7-.7,1.2h0c0,.4.3.7.7.7h11.1v-14.2c0-8.1-6.6-14.7-14.8-14.7h-14.1v11.2c0,.4-.3.7-.7.7h0c-.5,0-.9-.3-1.2-.7-1.2-2.1-3.4-3.5-6.1-3.4-3.5.1-6.3,2.9-6.5,6.4-.2,3.8,2.9,7,6.7,7,2.5,0,4.7-1.4,5.8-3.4.2-.4.7-.7,1.2-.7h0c.4,0,.7.3.7.7v11.2h11.2c.4,0,.7-.3.7-.7h0c0-.5-.3-.9-.7-1.2-2-1.1-3.4-3.3-3.4-5.8,0-4,3.2-7,7.1-6.9Z"/>
</svg>