<?xml version="1.0" encoding="UTF-8"?>
<svg id="Layer_1" data-name="Layer 1" xmlns="http://www.w3.org/2000/svg" viewBox="0 0 75.2 50.15">
  <defs>
    <style>
      .cls-1 {
        stroke-width: .25px;
      }

      .cls-1, .cls-2 {
        stroke: #fff;
        stroke-miterlimit: 10;
      }

      .cls-1, .cls-2, .cls-3 {
        fill: #13204a;
      }

      .cls-4 {
        fill: #fff;
      }

      .cls-2 {
        stroke-width: .5px;
      }

      .cls-5 {
        opacity: .7;
      }

      .cls-6 {
        fill: #edf3f3;
      }

      .cls-7 {
        opacity: .15;
      }
    </style>
  </defs>
  <g>
    <circle class="cls-3" cx="25.55" cy="8.3" r="8.3"/>
    <circle class="cls-3" cx="49.55" cy="8.3" r="8.3"/>
  </g>
  <path class="cls-2" d="m73.35,25.8l-11.8-15.5h0c-1.4-4.4-5.5-7.6-10.5-7.6-4.7,0-8.7,3-10.3,7.2h-6.4c-1.5-4.2-5.5-7.2-10.3-7.2s-9,3.2-10.5,7.6h0L1.95,25.8h27.9v8h15.4v-8h28.1Z"/>
  <rect class="cls-2" x="30.65" y="27.1" width="13.5" height="12.2"/>
  <g>
    <g>
      <circle class="cls-2" cx="16.95" cy="33.2" r="16.7"/>
      <circle class="cls-2" cx="16.95" cy="33.2" r="11.8"/>
      <circle class="cls-1" cx="16.95" cy="33.2" r="8.6"/>
      <g class="cls-5">
        <path class="cls-4" d="m14.55,27.9c-1.5.7-2.7,2-3.1,3.6l-4.9-1.5c.9-3,3.1-5.4,5.9-6.8l2.1,4.7Z"/>
      </g>
      <g class="cls-5">
        <path class="cls-6" d="m19.15,33.2c0,1.2-.9,2.1-2.1,2.1s-2.1-.9-2.1-2.1.9-2.1,2.1-2.1c1.1,0,2.1.9,2.1,2.1Z"/>
      </g>
    </g>
    <g>
      <circle class="cls-2" cx="58.25" cy="33.2" r="16.7"/>
      <circle class="cls-2" cx="58.25" cy="33.2" r="11.8"/>
      <circle class="cls-1" cx="58.25" cy="33.2" r="8.6"/>
      <g class="cls-5">
        <path class="cls-4" d="m55.75,27.9c-1.5.7-2.7,2-3.1,3.6l-4.9-1.5c.9-3,3.1-5.4,5.9-6.8l2.1,4.7Z"/>
      </g>
      <g class="cls-5">
        <path class="cls-6" d="m60.35,33.2c0,1.2-.9,2.1-2.1,2.1s-2-.9-2-2.1.9-2.1,2.1-2.1,2,.9,2,2.1Z"/>
      </g>
    </g>
  </g>
  <g class="cls-7">
    <polygon class="cls-2" points="32.65 27.3 34.35 9.9 40.85 9.9 42.55 27.3 32.65 27.3"/>
  </g>
  <path class="cls-3" d="m40.15,34.3h-5.1c-.3,0-.6-.3-.6-.6v-1c0-.3.3-.6.6-.6h5.1c.3,0,.6.3.6.6v1c0,.3-.3.6-.6.6Z"/>
</svg>