<?xml version="1.0" encoding="UTF-8"?>
<svg id="Layer_1" data-name="Layer 1" xmlns="http://www.w3.org/2000/svg" viewBox="0 0 46.77 75.39">
  <defs>
    <style>
      .cls-1 {
        stroke-width: .5px;
      }

      .cls-1, .cls-2, .cls-3 {
        fill: #13204a;
        stroke: #fff;
        stroke-miterlimit: 10;
      }

      .cls-3 {
        stroke-width: .75px;
      }
    </style>
  </defs>
  <path class="cls-1" d="m46.52,23.39C46.52,9.79,34.62-1.11,20.72.39,10.22,1.59,1.62,9.99.42,20.59c-.9,7.5,1.8,14.4,6.6,19.2,4.3,4.3,6.5,10.2,6.5,16.2v2.7h19.7v-2.9c0-6.1,2.5-12,6.8-16.3,4-4,6.5-9.8,6.5-16.1Z"/>
  <g>
    <path class="cls-1" d="m35.02,52.39v14.5H11.72v-14.5c0-.9.7-1.8,1.8-1.8h19.8c.9.1,1.7.8,1.7,1.8Z"/>
    <polygon class="cls-2" points="29.72 71.39 17.02 71.39 11.72 66.79 35.02 66.79 29.72 71.39"/>
    <g>
      <path class="cls-3" d="m35.92,53.69c0,.5-.4.9-.9.9H11.72c-.5,0-.9-.4-.9-.9s.4-.9.9-.9h23.4c.5,0,.8.5.8.9Z"/>
      <path class="cls-3" d="m35.92,58.89c0,.5-.4.9-.9.9H11.72c-.5,0-.9-.4-.9-.9s.4-.9.9-.9h23.4c.5,0,.8.3.8.9Z"/>
      <path class="cls-3" d="m35.92,63.99c0,.5-.4.9-.9.9H11.72c-.5,0-.9-.4-.9-.9s.4-.9.9-.9h23.4c.5,0,.8.4.8.9Z"/>
    </g>
    <path class="cls-2" d="m29.72,71.39c0,.9-.4,1.9-1,2.5s-1.5,1-2.5,1h-5.7c-1.9,0-3.5-1.6-3.5-3.5h12.7Z"/>
  </g>
  <circle class="cls-3" cx="23.42" cy="23.39" r="17"/>
  <g>
    <path class="cls-1" d="m34.32,21.09l-2.7-.5c-.1-.4-.3-.7-.5-1l1.6-2.2c.3-.4.2-.8-.1-1.1l-2-2.1c-.3-.3-.8-.4-1.1-.1l-2.3,1.5-1-.5-.5-2.7c-.1-.5-.5-.7-.9-.7h-2.8c-.5,0-.8.3-.9.7l-.6,2.7c-.4.1-.7.3-1,.5l-2.2-1.6c-.4-.3-.8-.2-1.1.1l-2.1,2c-.3.3-.4.8-.1,1.1l1.6,2.2-.5,1-2.7.5c-.5.1-.7.5-.7.9v2.8c0,.5.3.8.7.9l2.7.5c.1.4.3.7.5,1l-1.6,2.2c-.3.4-.2.8.1,1.1l1.9,1.9c.3.3.8.4,1.1.1l2.2-1.6c.4.2.6.3,1,.5l.5,2.7c.1.5.5.7.9.7h2.8c.5,0,.8-.3.9-.7l.5-2.7c.4-.1.7-.3,1-.5l2.2,1.6c.4.3.8.2,1.1-.1l1.9-1.9c.3-.3.4-.8.1-1.1l-1.6-2.2c.2-.4.3-.6.5-1l2.7-.5c.5-.1.7-.5.7-.9v-2.8c.5-.2.2-.6-.2-.7Z"/>
    <circle class="cls-1" cx="23.42" cy="23.39" r="5.9"/>
    <circle class="cls-1" cx="23.42" cy="23.39" r="3.4"/>
  </g>
</svg>