<?xml version="1.0" encoding="UTF-8"?>
<svg id="Layer_1" data-name="Layer 1" xmlns="http://www.w3.org/2000/svg" viewBox="0 0 62.23 75.41">
  <defs>
    <style>
      .cls-1 {
        fill: #fff;
      }

      .cls-2 {
        stroke: #fff;
        stroke-miterlimit: 10;
        stroke-width: .5px;
      }

      .cls-2, .cls-3 {
        fill: #13204a;
      }
    </style>
  </defs>
  <g>
    <polygon class="cls-3" points="17.61 75.41 13.81 66.21 4.01 68.31 17.81 41.91 31.31 49.01 17.61 75.41"/>
    <polygon class="cls-3" points="58.21 68.31 48.41 66.21 44.61 75.41 37.01 60.81 33.71 54.51 33.21 53.31 32.51 52.11 31.11 49.41 31.11 49.41 30.91 49.01 31.11 48.91 31.11 48.81 31.11 48.81 38.61 45.01 40.61 43.91 44.41 41.91 46.31 45.61 46.91 46.81 47.51 48.01 50.51 53.51 58.21 68.31"/>
  </g>
  <g>
    <polygon class="cls-2" points="61.91 36.01 57.91 39.81 58.91 45.31 53.81 47.61 53.21 53.21 50.51 53.51 47.61 53.81 45.31 58.91 39.81 57.91 37.01 60.81 36.01 61.91 31.11 59.21 26.21 61.91 25.21 60.81 22.41 57.91 16.91 58.91 14.61 53.81 11.81 53.51 9.01 53.21 8.41 47.61 3.31 45.31 4.41 39.81 .31 36.01 3.01 31.11 .31 26.21 4.41 22.41 3.31 16.91 8.41 14.61 9.01 9.01 14.61 8.41 16.91 3.31 22.41 4.41 26.21 .31 31.11 3.01 36.01 .31 39.81 4.41 45.31 3.31 47.61 8.41 53.21 9.01 53.81 14.61 58.91 16.91 57.91 22.41 61.91 26.21 59.21 31.11 61.91 36.01"/>
    <g>
      <circle class="cls-1" cx="31.11" cy="31.11" r="22.3"/>
      <path class="cls-1" d="m31.11,7.61c-13,0-23.4,10.6-23.4,23.4,0,6.5,2.7,12.6,7.1,16.8,3.7,3.6,8.5,6,13.7,6.5.9.1,1.7.2,2.6.2s1.7-.1,2.6-.2c5.4-.6,10.2-3,13.7-6.5,4.4-4.2,7.1-10.2,7.1-16.8.1-12.8-10.4-23.4-23.4-23.4Zm0,44.5c-.5,0-1,0-1.3-.1-5.5-.3-10.4-2.7-13.8-6.3-3.6-3.7-5.9-8.8-5.9-14.5,0-11.5,9.4-21,21-21s21,9.4,21,21c0,5.6-2.2,10.7-5.8,14.5-3.6,3.7-8.4,6.2-13.8,6.4-.5,0-1,0-1.4,0Z"/>
    </g>
    <polygon class="cls-3" points="31.11 42.31 21.61 45.71 21.91 35.71 15.81 27.71 25.51 24.81 31.11 16.51 36.81 24.81 46.41 27.71 40.31 35.71 40.61 45.71 31.11 42.31"/>
  </g>
</svg>