<?xml version="1.0" encoding="UTF-8"?>
<svg id="Layer_1" data-name="Layer 1" xmlns="http://www.w3.org/2000/svg" viewBox="0 0 74.8 74.8">
  <defs>
    <style>
      .cls-1 {
        stroke: #fff;
        stroke-miterlimit: 10;
        stroke-width: .25px;
      }

      .cls-1, .cls-2 {
        fill: #13204a;
      }

      .cls-3 {
        fill: #edf3f3;
      }

      .cls-4 {
        opacity: .1;
      }

      .cls-5 {
        fill: ivory;
      }
    </style>
  </defs>
  <g>
    <polygon class="cls-2" points="21.3 67.6 19.8 67.6 19 66.2 20.4 65.4 20.7 65.9 21.3 65.9 21.3 67.6"/>
    <path class="cls-2" d="m51.3,67.6h-2.2v-1.6h2.2v1.6Zm-4.3,0h-2.2v-1.6h2.2v1.6Zm-4.3,0h-2.2v-1.6h2.2v1.6Zm-4.2,0h-2.2v-1.6h2.2v1.6Zm-4.3,0h-2.2v-1.6h2.2v1.6Zm-4.3,0h-2.2v-1.6h2.2v1.6Zm-4.3,0h-2.2v-1.6h2.2v1.6Z"/>
    <polygon class="cls-2" points="55 67.6 53.5 67.6 53.5 65.9 54.1 65.9 54.4 65.4 55.8 66.2 55 67.6"/>
    <path class="cls-2" d="m56.8,64.4l-1.4-.9,1.1-1.9,1.4.9-1.1,1.9Zm2.2-3.7l-1.4-.8,1.1-1.9,1.4.9-1.1,1.8Zm2.2-3.6l-1.4-.9,1.1-1.9,1.4.9-1.1,1.9Zm2.1-3.7l-1.4-.9,1.1-1.9,1.4.9-1.1,1.9Zm2.2-3.7l-1.4-.9,1.1-1.9,1.4.9-1.1,1.9Zm2.1-3.6l-1.4-.9,1.1-1.9,1.4.9-1.1,1.9Zm2.1-3.7l-1.4-.9,1.1-1.9,1.4.9-1.1,1.9Z"/>
    <polygon class="cls-2" points="71.8 38.7 70.4 37.9 70.8 37.4 70.4 36.8 71.8 36 72.6 37.4 71.8 38.7"/>
    <path class="cls-2" d="m69.4,35l-1.1-1.9,1.4-.9,1.1,1.9-1.4.9Zm-2.1-3.6l-1.1-1.9,1.4-.9,1.1,1.9-1.4.9Zm-2.2-3.7l-1.1-1.9,1.4-.9,1.1,1.9-1.4.9Zm-2.1-3.7l-1.1-1.9,1.4-.9,1.1,1.9-1.4.9Zm-2.2-3.7l-1.1-1.9,1.4-.9,1.1,1.9-1.4.9Zm-2.1-3.6l-1.1-1.8,1.4-.9,1.1,1.9-1.4.8Zm-2.2-3.7l-1.1-1.9,1.4-.9,1.1,1.9-1.4.9Z"/>
    <polygon class="cls-2" points="54.4 9.3 54.1 8.8 53.5 8.8 53.5 7.2 55 7.2 55.8 8.5 54.4 9.3"/>
    <path class="cls-2" d="m51.3,8.8h-2.2v-1.6h2.2v1.6Zm-4.3,0h-2.2v-1.6h2.2v1.6Zm-4.3,0h-2.2v-1.6h2.2v1.6Zm-4.2,0h-2.2v-1.6h2.2v1.6Zm-4.3,0h-2.2v-1.6h2.2v1.6Zm-4.3,0h-2.2v-1.6h2.2v1.6Zm-4.3,0h-2.2v-1.6h2.2v1.6Z"/>
    <polygon class="cls-2" points="20.4 9.3 19 8.5 19.8 7.2 21.3 7.2 21.3 8.8 20.7 8.8 20.4 9.3"/>
    <path class="cls-2" d="m5.4,35l-1.4-.8,1.1-1.9,1.4.9-1.1,1.8Zm2.2-3.6l-1.4-.9,1.1-1.9,1.4.9-1.1,1.9Zm2.1-3.7l-1.4-.9,1-1.8,1.4.9-1,1.8Zm2.1-3.7l-1.4-.9,1.1-1.9,1.4.9-1.1,1.9Zm2.1-3.7l-1.4-.9,1.1-1.9,1.4.9-1.1,1.9Zm2.2-3.6l-1.4-.9,1.1-1.9,1.4.9-1.1,1.9Zm2.1-3.7l-1.4-.9,1.1-1.9,1.4.9-1.1,1.9Z"/>
    <polygon class="cls-2" points="2.9 38.7 2.1 37.4 2.9 36 4.3 36.8 4 37.4 4.3 37.9 2.9 38.7"/>
    <path class="cls-2" d="m17.9,64.4l-1.1-1.9,1.4-.9,1.1,1.9-1.4.9Zm-2.2-3.7l-1.1-1.9,1.4-.8,1.1,1.9-1.4.8Zm-2.1-3.6l-1.1-1.8,1.4-.9,1.1,1.9-1.4.8Zm-2.2-3.7l-1.1-1.9,1.4-.9,1.1,1.9-1.4.9Zm-2.1-3.7l-1.1-1.9,1.5-.8,1.1,1.9-1.5.8Zm-2.1-3.6l-1.1-1.9,1.4-.9,1.1,1.9-1.4.9Zm-2.1-3.7l-1.1-1.8,1.4-.9,1.1,1.9-1.4.8Z"/>
  </g>
  <g>
    <g>
      <path class="cls-2" d="m61.8,38.2h-1.1v-1.6h1.1v1.6Zm-3.3,0h-2.2v-1.6h2.2v1.6Zm-4.3,0h-2.2v-1.6h2.2v1.6Zm-4.4,0h-2.2v-1.6h2.2v1.6Zm-4.3,0h-2.2v-1.6h2.2v1.6Zm-4.3,0h-2.2v-1.6h2.2v1.6Zm-4.4,0h-2.2v-1.6h2.2v1.6Zm-4.3,0h-2.2v-1.6h2.2v1.6Zm-4.3,0h-2.2v-1.6h2.2v1.6Zm-4.4,0h-2.2v-1.6h2.2v1.6Zm-4.3,0h-2.2v-1.6h2.2v1.6Zm-4.3,0h-2.2v-1.6h2.2v1.6Z"/>
      <g>
        <path class="cls-2" d="m13,37.4c0,3.6-2.9,6.5-6.5,6.5s-6.5-3-6.5-6.5,2.9-6.5,6.5-6.5c3.6,0,6.5,2.9,6.5,6.5Z"/>
        <path class="cls-3" d="m10.4,37.4c0,2.2-1.8,4-4,4s-4-1.8-4-4,1.8-4,4-4,4,1.8,4,4Z"/>
        <g class="cls-4">
          <path class="cls-5" d="m13,37.4H0c0-3.6,2.9-6.5,6.5-6.5,3.6,0,6.5,2.9,6.5,6.5Z"/>
        </g>
      </g>
      <g>
        <path class="cls-2" d="m61.8,37.4c0-3.6,2.9-6.5,6.5-6.5s6.5,2.9,6.5,6.5-2.9,6.5-6.5,6.5-6.5-3-6.5-6.5Z"/>
        <path class="cls-3" d="m64.3,37.4c0-2.2,1.8-4,4-4s4,1.8,4,4-1.8,4-4,4-4-1.9-4-4Z"/>
        <g class="cls-4">
          <path class="cls-5" d="m61.8,37.4h12.9c0,3.6-2.9,6.5-6.5,6.5s-6.4-3-6.4-6.5Z"/>
        </g>
      </g>
    </g>
    <g>
      <path class="cls-2" d="m38.2,61.8h-1.6v-1.1h1.6v1.1Zm0-3.3h-1.6v-2.2h1.6v2.2Zm0-4.3h-1.6v-2.2h1.6v2.2Zm0-4.4h-1.6v-2.2h1.6v2.2Zm0-4.3h-1.6v-2.2h1.6v2.2Zm0-4.3h-1.6v-2.2h1.6v2.2Zm0-4.4h-1.6v-2.2h1.6v2.2Zm0-4.3h-1.6v-2.2h1.6v2.2Zm0-4.3h-1.6v-2.2h1.6v2.2Zm0-4.4h-1.6v-2.2h1.6v2.2Zm0-4.3h-1.6v-2.2h1.6v2.2Zm0-4.3h-1.6v-2.2h1.6v2.2Z"/>
      <g>
        <path class="cls-2" d="m37.4,13c-3.6,0-6.5-2.9-6.5-6.5s2.9-6.5,6.5-6.5,6.5,2.9,6.5,6.5-3,6.5-6.5,6.5Z"/>
        <path class="cls-3" d="m37.4,10.4c-2.2,0-4-1.8-4-4s1.8-4,4-4,4,1.8,4,4c-.1,2.3-1.9,4-4,4Z"/>
        <g class="cls-4">
          <path class="cls-5" d="m37.4,13V0c3.6,0,6.5,2.9,6.5,6.5s-3,6.5-6.5,6.5Z"/>
        </g>
      </g>
      <g>
        <path class="cls-2" d="m37.4,61.8c3.6,0,6.5,2.9,6.5,6.5s-2.9,6.5-6.5,6.5-6.5-2.9-6.5-6.5c0-3.6,2.9-6.5,6.5-6.5Z"/>
        <path class="cls-3" d="m37.4,64.3c2.2,0,4,1.8,4,4s-1.8,4-4,4-4-1.8-4-4,1.8-4,4-4Z"/>
        <g class="cls-4">
          <path class="cls-5" d="m37.4,61.8v12.9c-3.6,0-6.5-2.9-6.5-6.5s2.9-6.4,6.5-6.4Z"/>
        </g>
      </g>
    </g>
    <g>
      <path class="cls-2" d="m54,55.2l-.8-.8,1.2-1.2.8.8-1.2,1.2Zm-2.3-2.3l-1.6-1.6,1.2-1.2,1.6,1.6-1.2,1.2Zm-3.1-3.1l-1.6-1.6,1.2-1.2,1.6,1.6-1.2,1.2Zm-3-3l-1.6-1.6,1.2-1.2,1.6,1.6-1.2,1.2Zm-3.1-3.1l-1.6-1.6,1.2-1.2,1.6,1.6-1.2,1.2Zm-3-3.1l-1.6-1.6,1.2-1.2,1.6,1.6-1.2,1.2Zm-3.1-3.1l-1.5-1.5,1.2-1.2,1.6,1.6-1.3,1.1Zm-3.1-3l-1.6-1.6,1.2-1.2,1.6,1.6-1.2,1.2Zm-3-3.1l-1.6-1.6,1.2-1.2,1.6,1.6-1.2,1.2Zm-3.1-3.1l-1.6-1.6,1.2-1.2,1.6,1.6-1.2,1.2Zm-3.1-3l-1.6-1.6,1.2-1.2,1.6,1.6-1.2,1.2Zm-3-3l-1.6-1.6,1.2-1.2,1.6,1.6-1.2,1.2Z"/>
      <g>
        <path class="cls-2" d="m20.2,20.2c-2.6,2.6-6.6,2.6-9.2,0s-2.6-6.6,0-9.2,6.6-2.6,9.2,0c2.5,2.5,2.5,6.6,0,9.2Z"/>
        <circle class="cls-3" cx="15.6" cy="15.6" r="4"/>
        <g class="cls-4">
          <path class="cls-5" d="m20.2,20.2l-9.2-9.2c2.6-2.6,6.6-2.6,9.2,0s2.5,6.6,0,9.2Z"/>
        </g>
      </g>
      <g>
        <path class="cls-2" d="m54.6,54.6c2.6-2.6,6.6-2.6,9.2,0s2.6,6.6,0,9.2-6.6,2.6-9.2,0-2.5-6.7,0-9.2Z"/>
        <path class="cls-3" d="m56.4,56.4c1.6-1.6,4-1.6,5.6,0s1.6,4,0,5.6-4,1.6-5.6,0c-1.5-1.5-1.5-4,0-5.6Z"/>
        <g class="cls-4">
          <path class="cls-5" d="m54.6,54.6l9.2,9.2c-2.6,2.6-6.6,2.6-9.2,0s-2.5-6.7,0-9.2Z"/>
        </g>
      </g>
    </g>
    <g>
      <path class="cls-2" d="m20.7,55.2l-1.2-1.2.8-.8,1.2,1.2-.8.8Zm2.3-2.3l-1.2-1.2,1.6-1.6,1.2,1.2-1.6,1.6Zm3.1-3.1l-1.2-1.2,1.6-1.6,1.2,1.2-1.6,1.6Zm3.1-3l-1.2-1.2,1.6-1.6,1.2,1.2-1.6,1.6Zm3-3.1l-1.2-1.2,1.6-1.6,1.2,1.2-1.6,1.6Zm3.1-3.1l-1.2-1.2,1.6-1.6,1.2,1.2-1.6,1.6Zm3.1-3.1l-1.2-1.2,1.6-1.6,1.2,1.2-1.6,1.6Zm3-3l-1.2-1.2,1.6-1.6,1.2,1.2-1.6,1.6Zm3-3.1l-1.2-1.2,1.6-1.6,1.2,1.2-1.6,1.6Zm3.2-3.1l-1.2-1.1,1.6-1.6,1.2,1.2-1.6,1.5Zm3-3l-1.2-1.2,1.6-1.6,1.2,1.2-1.6,1.6Zm3-3l-1.2-1.2,1.6-1.6,1.2,1.2-1.6,1.6Z"/>
      <g>
        <path class="cls-2" d="m54.6,20.2c-2.6-2.6-2.6-6.6,0-9.2s6.6-2.6,9.2,0,2.6,6.6,0,9.2c-2.5,2.5-6.7,2.5-9.2,0Z"/>
        <path class="cls-3" d="m56.4,18.4c-1.6-1.6-1.6-4,0-5.6s4-1.6,5.6,0,1.6,4,0,5.6c-1.5,1.5-4,1.5-5.6,0Z"/>
        <g class="cls-4">
          <path class="cls-5" d="m54.6,20.2l9.2-9.2c2.6,2.6,2.6,6.6,0,9.2-2.5,2.5-6.7,2.5-9.2,0Z"/>
        </g>
      </g>
      <g>
        <path class="cls-2" d="m20.2,54.6c2.6,2.5,2.6,6.4,0,8.8-2.6,2.5-6.6,2.5-9.2,0-2.6-2.5-2.6-6.4,0-8.8,2.5-2.5,6.6-2.5,9.2,0Z"/>
        <path class="cls-3" d="m18.4,56.4c1.6,1.6,1.6,4,0,5.6s-4,1.6-5.6,0-1.6-4,0-5.6c1.5-1.5,4-1.5,5.6,0Z"/>
        <g class="cls-4">
          <path class="cls-5" d="m20.2,54.6l-9.2,9.2c-2.6-2.6-2.6-6.6,0-9.2,2.5-2.5,6.6-2.5,9.2,0Z"/>
        </g>
      </g>
    </g>
  </g>
  <circle class="cls-2" cx="37.4" cy="37.4" r="15.3"/>
  <g>
    <path class="cls-2" d="m28.5,30.6c0-.1.1-.1.1-.2,0,.1,0,.2-.1.2Z"/>
    <path class="cls-2" d="m28.2,31.1c0-.1.1-.1.1-.2q0,.1-.1.2Z"/>
    <path class="cls-2" d="m29.7,30l-.4-.2v-.2c-.2.2-.3.4-.5.5l.3.1.6-.2Z"/>
    <path class="cls-2" d="m29.4,29.6l.4-.4c-.1.1-.3.2-.4.4Z"/>
    <path class="cls-2" d="m45.9,30.2c.3.3.5.7.8,1.1-.2-.4-.5-.8-.8-1.1Z"/>
    <path class="cls-2" d="m27.9,31.4c0-.1.1-.2.1-.2,0,.2-.1.2-.1.2Z"/>
    <path class="cls-2" d="m44.5,45.4c.9-.7,1.6-1.6,2.1-2.4-.5.8-1.2,1.7-2.1,2.4Z"/>
    <path class="cls-2" d="m26.4,36.5v-.2c.1.1.1.2,0,.2Z"/>
    <path class="cls-2" d="m27.7,31.9c0-.1.1-.2.1-.2,0,.1-.1.1-.1.2Z"/>
    <path class="cls-2" d="m46.7,31.3c.1.1.2.2.2.3,0-.1-.1-.2-.2-.3Z"/>
    <path class="cls-2" d="m27.5,32.4c0-.1.1-.2.1-.2,0,0-.1.1-.1.2Z"/>
    <path class="cls-2" d="m27.2,32.8c0-.1.1-.1.1-.2,0,.1,0,.2-.1.2Z"/>
    <path class="cls-2" d="m47.8,33.5c.1.2.1.3.2.5-.1-.1-.2-.3-.2-.5Z"/>
    <path class="cls-2" d="m48.1,34.8c0,.1,0,.2.1.2q-.1-.1-.1-.2Z"/>
    <path class="cls-2" d="m47.9,34.2c0,.1,0,.2.1.2,0,0,0-.1-.1-.2Z"/>
    <path class="cls-2" d="m46.9,31.7c.1.1.1.2.2.3,0-.1-.1-.2-.2-.3Z"/>
    <path class="cls-2" d="m47.2,32.1c.1.1.1.2.2.3-.2,0-.2-.2-.2-.3Z"/>
    <path class="cls-2" d="m47.4,32.6c.1.1.1.2.2.3-.1-.1-.2-.2-.2-.3Z"/>
    <path class="cls-2" d="m47.6,33.1c0,.1.1.2.1.3q-.1-.2-.1-.3Z"/>
    <path class="cls-2" d="m26.7,34.5c0-.1,0-.2.1-.2,0,0,0,.1-.1.2Z"/>
    <path class="cls-2" d="m47.1,42.1c-.1.2-.2.2-.2.4,0-.2.1-.2.2-.4Z"/>
    <path class="cls-2" d="m46.9,42.5c-.1.2-.2.2-.2.4,0-.1.1-.2.2-.4Z"/>
    <path class="cls-1" d="m47.6,38v-.6l-.1-.4-.2-.6.3-.2v-.3l-.2-.3h-.5l-.3-.3.3-.2.8.1v-.4l-.9-.5-.4.5-.7.5.5.8-.4-.1-.4-.6-.2-.6-.9-.4.5,1.1v.5h-.6l.1-.8-.8-.5-1.1.2-.4.6h-.6l-.3.3-.5-.4.8-.7.5.1.2-.5-.3-.5-.9.1.2-.5.5-.4-.2-.5.5-.2.2.8.2.3-.1.2-.2-.2-.3.2.5.4.2-.2.4-.2-.2-.2.3-.5v.3l.4.2,1.1-.1.2-.2.3-.1.1-.2.2-.2h.2l.5-.4.1-.4-.2.1h-.9l.1-.4.4-.2.2-.2-.3-.1-.7.5-.1.4.1.4-.2.4-.4-.2.2-.2-.1-.4-.6.2-.3-.8.3-.2.4-.2.2-.6.9-.1.9-.2c-2-2.5-5.1-4-8.6-4-3,0-5.7,1.2-7.6,3.1q.2-.2.4-.3h0l.3.5.3.7h.5l.7-.5.6-.1.8-.4.1-.7.6-.3.2-.1,2.1-.1.1.2-.7.2h-.7l-.9.5-.2.5.8.6.5.6-.5.6-.8.4-.5-.4.8-.3-.2-.7-.2-.2-.7.3-.6.6v.5h-.2l-.5-.5-.5.5-.8.3-.2.2.3.5.5.1.2.4v.5l.3.1.2-.7.4-.6.3-.5.3-.4h.5l.1.7.6-.1.1-.3.2.1v.4l.5.5-.2.6.1.6-.6.4.2-.8-.9.1-.7,1,.2.4-.9.7-.1-.5-.5.4-1.4,1.8-.2,1.1-.5.1-.2-.8-.5-.2h-.7l-.8.5.1.8-.3.5.4.3h.2l.9-.8.4.2.1.9-.5.3.5.2.4.4-.2.4.5.3.5.2.3-.3.5-.3.2.4h.5l.9.3v.4l.7.3.7-.2.1.4-.2.7,1.2.2.9.3h.5v1l-.4.4.2.6v.5l-.5.5-.8.3-.1.8c-1.9-.5-3.6-1.4-5-2.6l.1-.2-.6-.5v-1.3l.5-.3-.2-.9-.8-.4-1.6-1.1v-.5l-.5-.1c-.1-.3-.2-.6-.2-1,.9,5.1,5.4,9,10.8,9,2.7,0,5.2-1,7.2-2.6-.2.1-.2.2-.4.3l-.1-.2v-1.2l.2-.3-.2-.7-.5-.6.2-1.1-.7-.3-.4-.2-.6.4h-1.3l-.6-.9-.8-.4.1-.6h.2v-.8l-.2-.5.4-.2.2-.9.7-.4.2-.7.5-.2.6.2.1-.4,1.3.1s-.2.5-.2.6,1.6.5,1.6.5l.3-.5.4.3.5.2.6-.2.4.5-.2.5.8,1.6.2.1c.1-.4.2-.8.2-1.2l-.4-.1Zm-16.4-8.7l-.4-.3.4-.3.2.1.2.5h-.4Zm1.3-.4l-.1-.2-.4-.1.1-.2h.3l.2.2.4-.2v.4l-.5.1Zm-1.7,11.3l-.3-.2-.2.3-.4-.2-.6-.9.2-.4.5.2.4.7.5-.2.5.4-.6.3Zm7.9.1l-.3-.2.4-.5-.1.7Zm-.2-10.1l-.3-.1-.1.5-.9.4.4.6-.7.2-.3-.3-.6-.5.2-.7.5-.3-.2-.4-.1-.6-1.2.1.1-.3.7-.1.5-.3.3-.2h.4l.2.3.9-.2.7-.3.7-.2.8.2.1.1h.5l.5-.2-.1.3-.7.2-.4.6-.2-.1-.4.5-.9.7-.4.1h0Zm1,10.5l.3.2.2.5-.3.4-.4-.3.2-.2-.3-.4.3-.2Zm.4-8.9l-.8.2.2-.5,1.4-.1.3.3-.5.6-.6-.5Z"/>
    <path class="cls-2" d="m26.6,34.9c0-.1,0-.2.1-.2l-.1.2Z"/>
    <path class="cls-2" d="m26.9,33.9q0-.1.1-.2l-.1.2Z"/>
    <path class="cls-2" d="m26.5,38.9c0-.1,0-.2-.1-.2.1,0,.1.1.1.2Z"/>
    <path class="cls-2" d="m48.1,39.5c-.2.9-.5,1.8-.9,2.6.4-.8.7-1.7.9-2.6Z"/>
    <path class="cls-3" d="m27.3,40.1v.4l1.6,1.1.8.4.2.9-.5.3v1.2l.6.5v.2c1.4,1.3,3.1,2.3,5,2.6l.1-.8.7-.3.5-.5v-.5l-.3-.7.5-.3v-1h-.5l-1-.2-1.2-.2.2-.7v-.5l-.7.2-.7-.3v-.4l-.9-.2h-.5l-.3-.3-.5.3-.4.3-.5-.2-.5-.3.1-.3-.4-.4-.5-.2.5-.3-.1-.9-.4-.2-.9.8h-.2l-.4-.3.3-.5v-.8l.8-.5h.7l.6.2.2.8.5-.1.2-1.1,1.2-1.6.5-.4.1.5.9-.7-.2-.4.7-1,1-.2-.2.8.7-.2-.1-.6.2-.6-.5-.5v-.4l-.2-.2.1.2-.7.1-.1-.7h-.5l-.3.4-.3.5-.4.6-.2.6-.3-.1v-.5l-.2-.5-.5-.1-.3-.4.3-.3.8-.3.5-.5.5.5h.2v-.5l.6-.6.7-.3.2.2.2.6-.8.3.5.4.8-.4.5-.5-.5-.6-.9-.8.2-.5.9-.5.6.2.7-.2-.1-.2-2.1.1h-.2l-.5.2-.1.8-.8.4h-.6l-.7.6h-.5l-.3-.7-.2-.5h0c-.3.1-.3.2-.5.3h0l-.4.4h0v.2l.4.2-.5.2-.3-.1h0c-.1.2-.2.2-.3.4,0,.1-.1.1-.1.2l-.2.2s-.1.1-.1.2c-.1.1-.1.2-.2.2,0,.1-.1.2-.1.2-.1.1-.1.2-.2.2,0,.1-.1.2-.1.2-.1.1-.1.2-.2.2,0,.1-.1.2-.1.2-.1.1-.1.2-.2.3,0,.1-.1.1-.1.2-.1.2-.2.3-.2.5h0c-.1.2-.1.3-.2.5q0,.1-.1.2c0,.1-.1.2-.1.3s0,.2-.1.2c0,.1-.1.2-.1.3s0,.2-.1.2c0,.1,0,.2-.1.3v.2c0,.1,0,.2-.1.3v1.3h0v1.6c0,.1,0,.2.1.2v.2c.1.3.2.6.2,1l1,.1Z"/>
    <polygon class="cls-3" points="30.4 39.8 30 39.1 29.4 38.9 29.3 39.3 29.9 40.2 30.3 40.4 30.5 40.1 30.8 40.2 31.4 39.9 30.9 39.5 30.4 39.8"/>
    <polygon class="cls-3" points="40.2 29 40.4 29 40.7 28.6 41.4 28.3 41.5 27.9 40.9 28.1 40.5 28.1 40.4 28 39.6 27.8 38.9 27.9 38.2 28.3 37.4 28.4 37.2 28.1 36.8 28.1 36.5 28.3 36 28.6 35.4 28.7 35.3 29 36.5 29 36.7 29.5 36.8 30 36.4 30.3 36 31 36.7 31.5 37 31.8 37.6 31.7 37.3 31.1 38.2 30.6 38.3 30 38.5 30.2 39 30.2 39.9 29.5 40.2 29"/>
    <polygon class="cls-3" points="40.6 31.4 39.3 31.4 39.1 32 39.9 31.8 40.4 32.2 40.9 31.6 40.6 31.4"/>
    <polygon class="cls-3" points="31.1 28.7 30.8 29 31.2 29.3 31.6 29.3 31.4 28.8 31.1 28.7"/>
    <polygon class="cls-3" points="32.5 28.6 32.4 28.3 32.1 28.3 32 28.6 32.4 28.7 32.5 28.9 33 28.7 32.9 28.3 32.5 28.6"/>
    <path class="cls-3" d="m47.2,37.7l.2-.5-.4-.5-.6.2-.5-.2-.4-.3-.3.5-1.6-.5.2-.6-1.3.1-.1.4-.8-.3-.6.2-.2.7-.7.4-.2.9-.4.2.2.5v.8h-.2l-.1.6.8.4.6.9h1.3l.5-.4.4.2.7.3-.2,1.1.5.6.2.7-.2.3v1.2l.2.2c.2-.1.2-.2.4-.3h0c.9-.7,1.6-1.6,2.1-2.4h0c.1-.2.2-.2.2-.4h0c.1-.2.2-.2.2-.4h0c.5-.9.8-1.7.9-2.6h0l-.2-.1-.6-1.9Z"/>
    <polygon class="cls-3" points="38.7 40.3 38.7 39.7 38.4 40.2 38.7 40.3"/>
    <polygon class="cls-3" points="39.5 41.3 39.3 41.5 39.7 41.7 40 41.3 39.8 40.9 39.5 40.7 39.2 40.9 39.5 41.3"/>
    <path class="cls-3" d="m44.1,30.4l-.2.6-.4.2-.3.2.3.8.6-.2.1.4-.2.1.4.2.3-.4-.2-.4.1-.3.7-.5.3.2-.2.2-.4.1-.1.3h.9l.2-.2.2.2-.5.4h-.2l-.2.2-.1.2-.3.1-.2.2-1.1.1-.4-.2v-.3l-.3.5.2.2-.4.2-.2.2-.5-.3.2-.4.2.2.1-.2-.2-.3-.3-.6-.5.2.2.5-.5.4-.2.5.9-.1.3.5-.2.5-.5-.1-.8.7.5.4.2-.3h.6l.5-.5,1.1-.2.8.5-.1.8.5.1v-.5l-.5-1.1.9.4.2.7.4.6.4-.1-.5-.8.7-.5.4-.5.9.6v.4l-1-.2-.3.2.3.3h.5l.2.3v.3l-.3.2.2.6.2.4v.7l.6.3h0v-2.5c0-.1,0-.2-.1-.3v-.2c0-.1,0-.2-.1-.3,0-.1,0-.2-.1-.2,0-.1-.1-.2-.1-.3s0-.2-.1-.2c0-.1-.1-.2-.1-.2-.1-.2-.1-.3-.2-.5,0-.1-.1-.2-.1-.2,0,0-.1-.2-.1-.3s-.1-.2-.1-.2c-.1-.1-.1-.2-.2-.3,0-.1-.1-.1-.1-.2-.1-.1-.1-.2-.2-.3,0-.1-.1-.1-.1-.2-.1-.1-.1-.2-.2-.3l-.1-.1c-.1-.1-.2-.2-.2-.3v-.1c-.2-.4-.5-.7-.8-1.1h0l-.8.3-.2.1Z"/>
  </g>
</svg>