<?xml version="1.0" encoding="utf-8"?>
<!-- Generator: Adobe Illustrator 23.0.3, SVG Export Plug-In . SVG Version: 6.00 Build 0)  -->
<svg version="1.1" id="_x37_c4ce476-a8a4-4d3e-9850-bb8ad0d97e43"
	 xmlns="http://www.w3.org/2000/svg" xmlns:xlink="http://www.w3.org/1999/xlink" x="0px" y="0px" viewBox="0 0 98.7 93.8"
	 style="enable-background:new 0 0 98.7 93.8;" xml:space="preserve">
<style type="text/css">
	.st0{fill:#4187FF;}
</style>
<title>valsoft-logo</title>
<g>
	<polygon class="st0" points="38.6,70.8 60.1,70.8 49.4,50.4 	"/>
	<polygon class="st0" points="25.8,48.9 36.5,69.3 47.2,48.9 	"/>
	<polygon class="st0" points="49.4,93.8 60.1,73.4 38.6,73.4 	"/>
	<polygon class="st0" points="62.2,69.3 73,48.9 51.5,48.9 	"/>
	<polygon class="st0" points="51.5,46.3 73,46.3 62.2,25.9 	"/>
	<polygon class="st0" points="64.4,24.5 75.1,44.9 85.8,24.5 	"/>
	<polygon class="st0" points="85.8,21.9 75.1,1.5 64.4,21.9 	"/>
	<polygon class="st0" points="77.2,0 88,20.4 98.7,0 	"/>
	<polygon class="st0" points="0,0 21.5,0 10.7,20.4 	"/>
	<polygon class="st0" points="12.9,21.9 23.6,1.5 34.3,21.9 	"/>
	<polygon class="st0" points="34.3,24.5 23.6,44.9 12.9,24.5 	"/>
	<polygon class="st0" points="25.8,46.3 36.5,25.9 47.2,46.3 	"/>
</g>
</svg>
