<?xml version="1.0" encoding="utf-8"?>
<!-- Generator: Adobe Illustrator 21.1.0, SVG Export Plug-In . SVG Version: 6.00 Build 0)  -->
<svg version="1.1" id="_x37_c4ce476-a8a4-4d3e-9850-bb8ad0d97e43"
	 xmlns="http://www.w3.org/2000/svg" xmlns:xlink="http://www.w3.org/1999/xlink" x="0px" y="0px" viewBox="0 0 376.4 93.8"
	 style="enable-background:new 0 0 376.4 93.8;" xml:space="preserve">
<style type="text/css">
	.st0{fill:#4187FF;}
	.st1{fill:#FFFFFF;}
</style>
<title>valsoft-logo</title>
<g>
	<polygon class="st0" points="38.6,70.8 60.1,70.8 49.4,50.4 	"/>
	<polygon class="st0" points="25.8,48.9 36.5,69.3 47.2,48.9 	"/>
	<polygon class="st0" points="49.4,93.8 60.1,73.4 38.6,73.4 	"/>
	<polygon class="st0" points="62.2,69.3 73,48.9 51.5,48.9 	"/>
	<polygon class="st0" points="51.5,46.3 73,46.3 62.2,25.9 	"/>
	<polygon class="st0" points="64.4,24.5 75.1,44.9 85.8,24.5 	"/>
	<polygon class="st0" points="85.8,21.9 75.1,1.5 64.4,21.9 	"/>
	<polygon class="st0" points="77.2,0 88,20.4 98.7,0 	"/>
	<polygon class="st0" points="0,0 21.5,0 10.7,20.4 	"/>
	<polygon class="st0" points="12.9,21.9 23.6,1.5 34.3,21.9 	"/>
	<polygon class="st0" points="34.3,24.5 23.6,44.9 12.9,24.5 	"/>
	<polygon class="st0" points="25.8,46.3 36.5,25.9 47.2,46.3 	"/>
	<g>
		<polygon class="st1" points="139.8,24.6 129.3,58.5 118.9,25.1 118.8,24.6 108,24.6 124.2,70.8 134.2,70.8 150.3,24.6 		"/>
		<path class="st1" d="M162.6,24.6L146,70.8h10.1l3.3-9.8h13.8l-0.3-0.9c-0.2-0.8-0.5-1.5-0.9-2.2c-0.4-0.8-0.8-1.5-1.4-2.2
			c-0.5-0.7-1.2-1.2-1.9-1.7c-0.8-0.5-1.7-0.7-2.7-0.7h-4.4l5.3-15.9l11,33l0.1,0.5h10.6l-16.6-46.2H162.6z"/>
		<polygon class="st1" points="204.3,24.6 194.1,24.6 194.1,70.8 220.5,70.8 220.5,63.1 204.3,63.1 		"/>
		<path class="st1" d="M250.2,47.5c-1.6-1.3-3.3-2.4-5.2-3.4c-1.8-0.9-3.5-1.8-5-2.8c-1.4-0.8-2.6-1.7-3.8-2.8
			c-0.9-0.8-1.4-2-1.4-3.2c0-1.1,0.5-2.2,1.4-2.9c1.2-0.9,2.6-1.3,4-1.2c1.4,0,2.8,0.1,4.2,0.3c1.7,0.3,3.3,0.6,4.9,1.1l0.6,0.2
			l2.8-6.9l-0.7-0.2c-1.3-0.4-2.5-0.8-3.6-1s-2.1-0.5-3.1-0.6s-2-0.3-2.8-0.3c-2.8-0.3-5.5,0-8.2,0.6c-1.6,0.5-3.2,1.2-4.5,2.2
			c-1.3,1-2.4,2.4-3.1,3.9c-0.8,1.7-1.2,3.6-1.1,5.5c-0.1,2.1,0.5,4.3,1.6,6.1c1.1,1.7,2.4,3.1,4,4.3c1.6,1.2,3.3,2.3,5.1,3.2
			c1.8,0.9,3.5,1.8,5,2.7c1.4,0.8,2.6,1.7,3.7,2.8c0.9,0.9,1.4,2.1,1.4,3.4c0,0.7-0.2,1.4-0.5,2c-0.3,0.6-0.8,1.2-1.4,1.6
			c-0.7,0.5-1.4,0.9-2.2,1.2c-2.1,0.7-4.8,0.5-8-0.1c-2.1-0.5-4.2-1.2-6.1-2.1l-0.6-0.3l-2.9,7l0.6,0.3c2.5,1.2,5.2,2.1,7.9,2.7
			c2.1,0.4,4.2,0.7,6.3,0.7c2.2,0,4.5-0.3,6.6-0.9c1.9-0.5,3.6-1.4,5.2-2.5c1.4-1.1,2.6-2.5,3.4-4.1c0.8-1.7,1.2-3.6,1.2-5.6
			c0.1-2.3-0.5-4.5-1.7-6.5C253.1,50.4,251.7,48.8,250.2,47.5z"/>
		<path class="st1" d="M300.7,31.5c-1.9-2.4-4.4-4.3-7.1-5.6c-3.3-1.5-6.9-2.3-10.6-2.2c-3.3-0.1-6.6,0.6-9.7,1.9
			c-2.7,1.2-5.2,2.9-7.2,5.2c-2,2.2-3.5,4.8-4.5,7.7c-1,3-1.6,6.1-1.5,9.3c0,3.2,0.5,6.4,1.5,9.5c1,2.8,2.5,5.4,4.5,7.6
			c2,2.2,4.5,3.9,7.2,5.1c3.1,1.3,6.4,1.9,9.8,1.9c3.4,0.1,6.7-0.6,9.8-2c2.8-1.3,5.2-3.1,7.2-5.4c1.9-2.2,3.4-4.8,4.4-7.7
			c1-2.9,1.5-5.9,1.5-9c0-2.9-0.4-5.7-1.2-8.4C303.9,36.4,302.5,33.8,300.7,31.5z M294.3,54.7c-0.6,1.9-1.5,3.6-2.8,5.1
			c-1.1,1.3-2.4,2.4-3.9,3.1c-1.4,0.7-3,1.1-4.6,1.1c-1.8,0-3.7-0.4-5.3-1.3c-1.5-0.9-2.8-2.2-3.8-3.7c-1.1-1.6-1.9-3.4-2.4-5.2
			c-0.5-2-0.8-4-0.8-6.1c0-2.1,0.3-4.2,0.8-6.3c0.5-1.9,1.3-3.6,2.4-5.2c1-1.4,2.3-2.6,3.8-3.5c3.3-1.7,7.1-1.7,10.4-0.1
			c1.5,0.8,2.8,2,3.9,3.3c1.1,1.6,1.9,3.3,2.5,5.2c0.6,2.1,0.9,4.4,0.9,6.6C295.4,50,295,52.4,294.3,54.7L294.3,54.7z"/>
		<path class="st1" d="M326.9,43.5c-0.8,0.4-1.4,1-2,1.7c-0.5,0.7-1,1.4-1.3,2.2c-0.3,0.7-0.6,1.4-0.8,2.2l-0.3,0.9h15.2v-7.6h-8.1
			C328.6,42.8,327.7,43,326.9,43.5z"/>
		<polygon class="st1" points="311.6,70.8 321.8,70.8 321.8,32.3 339.8,32.3 339.8,24.6 311.6,24.6 		"/>
		<polygon class="st1" points="342.8,24.6 342.8,32.3 354.5,32.3 354.5,70.8 364.6,70.8 364.6,32.3 376.4,32.3 376.4,24.6 		"/>
	</g>
</g>
</svg>
